<svg width="407" height="434" viewBox="0 0 407 434" fill="none" xmlns="http://www.w3.org/2000/svg">
<path d="M210.933 188.88C210.667 189.146 210.4 211.013 210.4 237.28V240.429C210.4 265.052 230.361 285.013 254.984 285.013H304.406C307.354 285.013 309.551 287.731 308.933 290.613C305.2 307.013 292.667 323.813 278.667 330.88C272.042 334.223 268.215 336.069 257.966 337.089C231.789 339.695 210.4 359.599 210.4 385.905C210.4 412.383 231.951 433.803 258.429 433.64L266.529 433.591C271.312 433.561 276.071 432.917 280.69 431.673L287.6 429.813C347.067 413.813 388.267 371.413 402.667 311.68C405.2 301.413 405.467 295.013 406 244.346C406.367 213.527 381.484 188.346 350.663 188.346H309.067C255.467 188.346 211.2 188.613 210.933 188.88Z" fill="#F0F3FF"/>
<path d="M198.533 1.26817C146.4 5.93484 102.267 26.7348 64.5333 64.4682C33.6 95.4015 15.3333 128.335 6.13333 169.402C1.33333 190.868 0 210.468 0 258.868V385.935C0 412.445 21.4903 433.935 48 433.935H49.4665C75.9547 433.935 97.4069 412.423 97.3333 385.935V251.802C97.4667 196.468 98.1333 189.802 106 171.535C112.533 156.068 118.267 147.402 129.2 135.668C145.867 117.802 164.533 106.602 187.867 100.202C196.364 97.9001 205.124 96.7118 213.928 96.6662L303.733 96.2015L358.859 95.9873C385.293 95.8846 406.667 74.4273 406.667 47.9938C406.667 21.4621 385.139 -0.0359544 358.608 4.51463e-05L308.4 0.0681696C254.267 0.201503 204.933 0.734836 198.533 1.26817Z" fill="#F0F3FF"/>
</svg>
